<svg width="1440" height="48" viewBox="0 0 1440 48" fill="none" xmlns="http://www.w3.org/2000/svg">
<g opacity="0.4" clip-path="url(#clip0_174_2553)">
<path d="M1.575 9.415L7.665 -6.3H8.925L2.835 9.415H1.575ZM16.4682 9.415L22.5582 -6.3H23.8182L17.7282 9.415H16.4682ZM31.3613 9.415L37.4513 -6.3H38.7113L32.6213 9.415H31.3613ZM46.2545 9.415L52.3445 -6.3H53.6045L47.5145 9.415H46.2545ZM61.1477 9.415L67.2377 -6.3H68.4977L62.4077 9.415H61.1477ZM76.0408 9.415L82.1308 -6.3H83.3908L77.3008 9.415H76.0408ZM90.934 9.415L97.024 -6.3H98.284L92.194 9.415H90.934ZM105.827 9.415L111.917 -6.3H113.177L107.087 9.415H105.827ZM120.72 9.415L126.81 -6.3H128.07L121.98 9.415H120.72ZM135.613 9.415L141.703 -6.3H142.963L136.873 9.415H135.613ZM150.507 9.415L156.597 -6.3H157.857L151.767 9.415H150.507ZM165.4 9.415L171.49 -6.3H172.75L166.66 9.415H165.4ZM180.293 9.415L186.383 -6.3H187.643L181.553 9.415H180.293ZM195.186 9.415L201.276 -6.3H202.536L196.446 9.415H195.186ZM210.079 9.415L216.169 -6.3H217.429L211.339 9.415H210.079ZM224.972 9.415L231.062 -6.3H232.322L226.232 9.415H224.972ZM239.866 9.415L245.956 -6.3H247.216L241.126 9.415H239.866ZM254.759 9.415L260.849 -6.3H262.109L256.019 9.415H254.759ZM269.652 9.415L275.742 -6.3H277.002L270.912 9.415H269.652ZM284.545 9.415L290.635 -6.3H291.895L285.805 9.415H284.545ZM299.438 9.415L305.528 -6.3H306.788L300.698 9.415H299.438ZM314.331 9.415L320.421 -6.3H321.681L315.591 9.415H314.331ZM329.225 9.415L335.315 -6.3H336.575L330.485 9.415H329.225ZM344.118 9.415L350.208 -6.3H351.468L345.378 9.415H344.118ZM359.011 9.415L365.101 -6.3H366.361L360.271 9.415H359.011ZM373.904 9.415L379.994 -6.3H381.254L375.164 9.415H373.904ZM388.797 9.415L394.887 -6.3H396.147L390.057 9.415H388.797ZM403.69 9.415L409.78 -6.3H411.04L404.95 9.415H403.69ZM418.584 9.415L424.674 -6.3H425.934L419.844 9.415H418.584ZM433.477 9.415L439.567 -6.3H440.827L434.737 9.415H433.477ZM448.37 9.415L454.46 -6.3H455.72L449.63 9.415H448.37ZM463.263 9.415L469.353 -6.3H470.613L464.523 9.415H463.263ZM478.156 9.415L484.246 -6.3H485.506L479.416 9.415H478.156ZM493.049 9.415L499.139 -6.3H500.399L494.309 9.415H493.049ZM507.943 9.415L514.033 -6.3H515.293L509.203 9.415H507.943ZM522.836 9.415L528.926 -6.3H530.186L524.096 9.415H522.836ZM537.729 9.415L543.819 -6.3H545.079L538.989 9.415H537.729ZM552.622 9.415L558.712 -6.3H559.972L553.882 9.415H552.622ZM567.515 9.415L573.605 -6.3H574.865L568.775 9.415H567.515ZM582.408 9.415L588.498 -6.3H589.758L583.668 9.415H582.408ZM597.302 9.415L603.392 -6.3H604.652L598.562 9.415H597.302ZM612.195 9.415L618.285 -6.3H619.545L613.455 9.415H612.195ZM627.088 9.415L633.178 -6.3H634.438L628.348 9.415H627.088ZM641.981 9.415L648.071 -6.3H649.331L643.241 9.415H641.981ZM656.874 9.415L662.964 -6.3H664.224L658.134 9.415H656.874ZM671.767 9.415L677.857 -6.3H679.117L673.027 9.415H671.767ZM686.661 9.415L692.751 -6.3H694.011L687.921 9.415H686.661ZM701.554 9.415L707.644 -6.3H708.904L702.814 9.415H701.554ZM716.447 9.415L722.537 -6.3H723.797L717.707 9.415H716.447ZM731.34 9.415L737.43 -6.3H738.69L732.6 9.415H731.34ZM746.233 9.415L752.323 -6.3H753.583L747.493 9.415H746.233ZM761.126 9.415L767.216 -6.3H768.476L762.386 9.415H761.126ZM776.02 9.415L782.11 -6.3H783.37L777.28 9.415H776.02ZM790.913 9.415L797.003 -6.3H798.263L792.173 9.415H790.913ZM805.806 9.415L811.896 -6.3H813.156L807.066 9.415H805.806ZM820.699 9.415L826.789 -6.3H828.049L821.959 9.415H820.699ZM835.592 9.415L841.682 -6.3H842.942L836.852 9.415H835.592ZM850.485 9.415L856.575 -6.3H857.835L851.745 9.415H850.485ZM865.379 9.415L871.469 -6.3H872.729L866.639 9.415H865.379ZM880.272 9.415L886.362 -6.3H887.622L881.532 9.415H880.272ZM895.165 9.415L901.255 -6.3H902.515L896.425 9.415H895.165ZM910.058 9.415L916.148 -6.3H917.408L911.318 9.415H910.058ZM924.951 9.415L931.041 -6.3H932.301L926.211 9.415H924.951ZM939.844 9.415L945.934 -6.3H947.194L941.104 9.415H939.844ZM954.737 9.415L960.827 -6.3H962.087L955.997 9.415H954.737ZM969.631 9.415L975.721 -6.3H976.981L970.891 9.415H969.631ZM984.524 9.415L990.614 -6.3H991.874L985.784 9.415H984.524ZM999.417 9.415L1005.51 -6.3H1006.77L1000.68 9.415H999.417ZM1014.31 9.415L1020.4 -6.3H1021.66L1015.57 9.415H1014.31ZM1029.2 9.415L1035.29 -6.3H1036.55L1030.46 9.415H1029.2ZM1044.1 9.415L1050.19 -6.3H1051.45L1045.36 9.415H1044.1ZM1058.99 9.415L1065.08 -6.3H1066.34L1060.25 9.415H1058.99ZM1073.88 9.415L1079.97 -6.3H1081.23L1075.14 9.415H1073.88ZM1088.78 9.415L1094.87 -6.3H1096.13L1090.04 9.415H1088.78ZM1103.67 9.415L1109.76 -6.3H1111.02L1104.93 9.415H1103.67ZM1118.56 9.415L1124.65 -6.3H1125.91L1119.82 9.415H1118.56ZM1133.46 9.415L1139.55 -6.3H1140.81L1134.72 9.415H1133.46ZM1148.35 9.415L1154.44 -6.3H1155.7L1149.61 9.415H1148.35ZM1163.24 9.415L1169.33 -6.3H1170.59L1164.5 9.415H1163.24ZM1178.13 9.415L1184.22 -6.3H1185.48L1179.39 9.415H1178.13ZM1193.03 9.415L1199.12 -6.3H1200.38L1194.29 9.415H1193.03ZM1207.92 9.415L1214.01 -6.3H1215.27L1209.18 9.415H1207.92ZM1222.81 9.415L1228.9 -6.3H1230.16L1224.07 9.415H1222.81ZM1237.71 9.415L1243.8 -6.3H1245.06L1238.97 9.415H1237.71ZM1252.6 9.415L1258.69 -6.3H1259.95L1253.86 9.415H1252.6ZM1267.49 9.415L1273.58 -6.3H1274.84L1268.75 9.415H1267.49ZM1282.39 9.415L1288.48 -6.3H1289.74L1283.65 9.415H1282.39ZM1297.28 9.415L1303.37 -6.3H1304.63L1298.54 9.415H1297.28ZM1312.17 9.415L1318.26 -6.3H1319.52L1313.43 9.415H1312.17ZM1327.07 9.415L1333.16 -6.3H1334.42L1328.33 9.415H1327.07ZM1341.96 9.415L1348.05 -6.3H1349.31L1343.22 9.415H1341.96ZM1356.85 9.415L1362.94 -6.3H1364.2L1358.11 9.415H1356.85ZM1371.75 9.415L1377.84 -6.3H1379.1L1373.01 9.415H1371.75ZM1386.64 9.415L1392.73 -6.3H1393.99L1387.9 9.415H1386.64ZM1401.53 9.415L1407.62 -6.3H1408.88L1402.79 9.415H1401.53ZM1416.43 9.415L1422.52 -6.3H1423.78L1417.69 9.415H1416.43ZM1431.32 9.415L1437.41 -6.3H1438.67L1432.58 9.415H1431.32ZM1.575 33.415L7.665 17.7H8.925L2.835 33.415H1.575ZM16.4682 33.415L22.5582 17.7H23.8182L17.7282 33.415H16.4682ZM31.3613 33.415L37.4513 17.7H38.7113L32.6213 33.415H31.3613ZM46.2545 33.415L52.3445 17.7H53.6045L47.5145 33.415H46.2545ZM61.1477 33.415L67.2377 17.7H68.4977L62.4077 33.415H61.1477ZM76.0408 33.415L82.1308 17.7H83.3908L77.3008 33.415H76.0408ZM90.934 33.415L97.024 17.7H98.284L92.194 33.415H90.934ZM105.827 33.415L111.917 17.7H113.177L107.087 33.415H105.827ZM120.72 33.415L126.81 17.7H128.07L121.98 33.415H120.72ZM135.613 33.415L141.703 17.7H142.963L136.873 33.415H135.613ZM150.507 33.415L156.597 17.7H157.857L151.767 33.415H150.507ZM165.4 33.415L171.49 17.7H172.75L166.66 33.415H165.4ZM180.293 33.415L186.383 17.7H187.643L181.553 33.415H180.293ZM195.186 33.415L201.276 17.7H202.536L196.446 33.415H195.186ZM210.079 33.415L216.169 17.7H217.429L211.339 33.415H210.079ZM224.972 33.415L231.062 17.7H232.322L226.232 33.415H224.972ZM239.866 33.415L245.956 17.7H247.216L241.126 33.415H239.866ZM254.759 33.415L260.849 17.7H262.109L256.019 33.415H254.759ZM269.652 33.415L275.742 17.7H277.002L270.912 33.415H269.652ZM284.545 33.415L290.635 17.7H291.895L285.805 33.415H284.545ZM299.438 33.415L305.528 17.7H306.788L300.698 33.415H299.438ZM314.331 33.415L320.421 17.7H321.681L315.591 33.415H314.331ZM329.225 33.415L335.315 17.7H336.575L330.485 33.415H329.225ZM344.118 33.415L350.208 17.7H351.468L345.378 33.415H344.118ZM359.011 33.415L365.101 17.7H366.361L360.271 33.415H359.011ZM373.904 33.415L379.994 17.7H381.254L375.164 33.415H373.904ZM388.797 33.415L394.887 17.7H396.147L390.057 33.415H388.797ZM403.69 33.415L409.78 17.7H411.04L404.95 33.415H403.69ZM418.584 33.415L424.674 17.7H425.934L419.844 33.415H418.584ZM433.477 33.415L439.567 17.7H440.827L434.737 33.415H433.477ZM448.37 33.415L454.46 17.7H455.72L449.63 33.415H448.37ZM463.263 33.415L469.353 17.7H470.613L464.523 33.415H463.263ZM478.156 33.415L484.246 17.7H485.506L479.416 33.415H478.156ZM493.049 33.415L499.139 17.7H500.399L494.309 33.415H493.049ZM507.943 33.415L514.033 17.7H515.293L509.203 33.415H507.943ZM522.836 33.415L528.926 17.7H530.186L524.096 33.415H522.836ZM537.729 33.415L543.819 17.7H545.079L538.989 33.415H537.729ZM552.622 33.415L558.712 17.7H559.972L553.882 33.415H552.622ZM567.515 33.415L573.605 17.7H574.865L568.775 33.415H567.515Z" fill="white"/>
</g>
<g opacity="0.4" clip-path="url(#clip1_174_2553)">
<path d="M1.575 33.415L7.665 17.7H8.925L2.835 33.415H1.575ZM16.4682 33.415L22.5582 17.7H23.8182L17.7282 33.415H16.4682ZM31.3613 33.415L37.4513 17.7H38.7113L32.6213 33.415H31.3613ZM46.2545 33.415L52.3445 17.7H53.6045L47.5145 33.415H46.2545ZM61.1477 33.415L67.2377 17.7H68.4977L62.4077 33.415H61.1477ZM76.0408 33.415L82.1308 17.7H83.3908L77.3008 33.415H76.0408ZM90.934 33.415L97.024 17.7H98.284L92.194 33.415H90.934ZM105.827 33.415L111.917 17.7H113.177L107.087 33.415H105.827ZM120.72 33.415L126.81 17.7H128.07L121.98 33.415H120.72ZM135.613 33.415L141.703 17.7H142.963L136.873 33.415H135.613ZM150.507 33.415L156.597 17.7H157.857L151.767 33.415H150.507ZM165.4 33.415L171.49 17.7H172.75L166.66 33.415H165.4ZM180.293 33.415L186.383 17.7H187.643L181.553 33.415H180.293ZM195.186 33.415L201.276 17.7H202.536L196.446 33.415H195.186ZM210.079 33.415L216.169 17.7H217.429L211.339 33.415H210.079ZM224.972 33.415L231.062 17.7H232.322L226.232 33.415H224.972ZM239.866 33.415L245.956 17.7H247.216L241.126 33.415H239.866ZM254.759 33.415L260.849 17.7H262.109L256.019 33.415H254.759ZM269.652 33.415L275.742 17.7H277.002L270.912 33.415H269.652ZM284.545 33.415L290.635 17.7H291.895L285.805 33.415H284.545ZM299.438 33.415L305.528 17.7H306.788L300.698 33.415H299.438ZM314.331 33.415L320.421 17.7H321.681L315.591 33.415H314.331ZM329.225 33.415L335.315 17.7H336.575L330.485 33.415H329.225ZM344.118 33.415L350.208 17.7H351.468L345.378 33.415H344.118ZM359.011 33.415L365.101 17.7H366.361L360.271 33.415H359.011ZM373.904 33.415L379.994 17.7H381.254L375.164 33.415H373.904ZM388.797 33.415L394.887 17.7H396.147L390.057 33.415H388.797ZM403.69 33.415L409.78 17.7H411.04L404.95 33.415H403.69ZM418.584 33.415L424.674 17.7H425.934L419.844 33.415H418.584ZM433.477 33.415L439.567 17.7H440.827L434.737 33.415H433.477ZM448.37 33.415L454.46 17.7H455.72L449.63 33.415H448.37ZM463.263 33.415L469.353 17.7H470.613L464.523 33.415H463.263ZM478.156 33.415L484.246 17.7H485.506L479.416 33.415H478.156ZM493.049 33.415L499.139 17.7H500.399L494.309 33.415H493.049ZM507.943 33.415L514.033 17.7H515.293L509.203 33.415H507.943ZM522.836 33.415L528.926 17.7H530.186L524.096 33.415H522.836ZM537.729 33.415L543.819 17.7H545.079L538.989 33.415H537.729ZM552.622 33.415L558.712 17.7H559.972L553.882 33.415H552.622ZM567.515 33.415L573.605 17.7H574.865L568.775 33.415H567.515ZM582.408 33.415L588.498 17.7H589.758L583.668 33.415H582.408ZM597.302 33.415L603.392 17.7H604.652L598.562 33.415H597.302ZM612.195 33.415L618.285 17.7H619.545L613.455 33.415H612.195ZM627.088 33.415L633.178 17.7H634.438L628.348 33.415H627.088ZM641.981 33.415L648.071 17.7H649.331L643.241 33.415H641.981ZM656.874 33.415L662.964 17.7H664.224L658.134 33.415H656.874ZM671.767 33.415L677.857 17.7H679.117L673.027 33.415H671.767ZM686.661 33.415L692.751 17.7H694.011L687.921 33.415H686.661ZM701.554 33.415L707.644 17.7H708.904L702.814 33.415H701.554ZM716.447 33.415L722.537 17.7H723.797L717.707 33.415H716.447ZM731.34 33.415L737.43 17.7H738.69L732.6 33.415H731.34ZM746.233 33.415L752.323 17.7H753.583L747.493 33.415H746.233ZM761.126 33.415L767.216 17.7H768.476L762.386 33.415H761.126ZM776.02 33.415L782.11 17.7H783.37L777.28 33.415H776.02ZM790.913 33.415L797.003 17.7H798.263L792.173 33.415H790.913ZM805.806 33.415L811.896 17.7H813.156L807.066 33.415H805.806ZM820.699 33.415L826.789 17.7H828.049L821.959 33.415H820.699ZM835.592 33.415L841.682 17.7H842.942L836.852 33.415H835.592ZM850.485 33.415L856.575 17.7H857.835L851.745 33.415H850.485ZM865.379 33.415L871.469 17.7H872.729L866.639 33.415H865.379ZM880.272 33.415L886.362 17.7H887.622L881.532 33.415H880.272ZM895.165 33.415L901.255 17.7H902.515L896.425 33.415H895.165ZM910.058 33.415L916.148 17.7H917.408L911.318 33.415H910.058ZM924.951 33.415L931.041 17.7H932.301L926.211 33.415H924.951ZM939.844 33.415L945.934 17.7H947.194L941.104 33.415H939.844ZM954.737 33.415L960.827 17.7H962.087L955.997 33.415H954.737ZM969.631 33.415L975.721 17.7H976.981L970.891 33.415H969.631ZM984.524 33.415L990.614 17.7H991.874L985.784 33.415H984.524ZM999.417 33.415L1005.51 17.7H1006.77L1000.68 33.415H999.417ZM1014.31 33.415L1020.4 17.7H1021.66L1015.57 33.415H1014.31ZM1029.2 33.415L1035.29 17.7H1036.55L1030.46 33.415H1029.2ZM1044.1 33.415L1050.19 17.7H1051.45L1045.36 33.415H1044.1ZM1058.99 33.415L1065.08 17.7H1066.34L1060.25 33.415H1058.99ZM1073.88 33.415L1079.97 17.7H1081.23L1075.14 33.415H1073.88ZM1088.78 33.415L1094.87 17.7H1096.13L1090.04 33.415H1088.78ZM1103.67 33.415L1109.76 17.7H1111.02L1104.93 33.415H1103.67ZM1118.56 33.415L1124.65 17.7H1125.91L1119.82 33.415H1118.56ZM1133.46 33.415L1139.55 17.7H1140.81L1134.72 33.415H1133.46ZM1148.35 33.415L1154.44 17.7H1155.7L1149.61 33.415H1148.35ZM1163.24 33.415L1169.33 17.7H1170.59L1164.5 33.415H1163.24ZM1178.13 33.415L1184.22 17.7H1185.48L1179.39 33.415H1178.13ZM1193.03 33.415L1199.12 17.7H1200.38L1194.29 33.415H1193.03ZM1207.92 33.415L1214.01 17.7H1215.27L1209.18 33.415H1207.92ZM1222.81 33.415L1228.9 17.7H1230.16L1224.07 33.415H1222.81ZM1237.71 33.415L1243.8 17.7H1245.06L1238.97 33.415H1237.71ZM1252.6 33.415L1258.69 17.7H1259.95L1253.86 33.415H1252.6ZM1267.49 33.415L1273.58 17.7H1274.84L1268.75 33.415H1267.49ZM1282.39 33.415L1288.48 17.7H1289.74L1283.65 33.415H1282.39ZM1297.28 33.415L1303.37 17.7H1304.63L1298.54 33.415H1297.28ZM1312.17 33.415L1318.26 17.7H1319.52L1313.43 33.415H1312.17ZM1327.07 33.415L1333.16 17.7H1334.42L1328.33 33.415H1327.07ZM1341.96 33.415L1348.05 17.7H1349.31L1343.22 33.415H1341.96ZM1356.85 33.415L1362.94 17.7H1364.2L1358.11 33.415H1356.85ZM1371.75 33.415L1377.84 17.7H1379.1L1373.01 33.415H1371.75ZM1386.64 33.415L1392.73 17.7H1393.99L1387.9 33.415H1386.64ZM1401.53 33.415L1407.62 17.7H1408.88L1402.79 33.415H1401.53ZM1416.43 33.415L1422.52 17.7H1423.78L1417.69 33.415H1416.43ZM1431.32 33.415L1437.41 17.7H1438.67L1432.58 33.415H1431.32ZM1.575 57.415L7.665 41.7H8.925L2.835 57.415H1.575ZM16.4682 57.415L22.5582 41.7H23.8182L17.7282 57.415H16.4682ZM31.3613 57.415L37.4513 41.7H38.7113L32.6213 57.415H31.3613ZM46.2545 57.415L52.3445 41.7H53.6045L47.5145 57.415H46.2545ZM61.1477 57.415L67.2377 41.7H68.4977L62.4077 57.415H61.1477ZM76.0408 57.415L82.1308 41.7H83.3908L77.3008 57.415H76.0408ZM90.934 57.415L97.024 41.7H98.284L92.194 57.415H90.934ZM105.827 57.415L111.917 41.7H113.177L107.087 57.415H105.827ZM120.72 57.415L126.81 41.7H128.07L121.98 57.415H120.72ZM135.613 57.415L141.703 41.7H142.963L136.873 57.415H135.613ZM150.507 57.415L156.597 41.7H157.857L151.767 57.415H150.507ZM165.4 57.415L171.49 41.7H172.75L166.66 57.415H165.4ZM180.293 57.415L186.383 41.7H187.643L181.553 57.415H180.293ZM195.186 57.415L201.276 41.7H202.536L196.446 57.415H195.186ZM210.079 57.415L216.169 41.7H217.429L211.339 57.415H210.079ZM224.972 57.415L231.062 41.7H232.322L226.232 57.415H224.972ZM239.866 57.415L245.956 41.7H247.216L241.126 57.415H239.866ZM254.759 57.415L260.849 41.7H262.109L256.019 57.415H254.759ZM269.652 57.415L275.742 41.7H277.002L270.912 57.415H269.652ZM284.545 57.415L290.635 41.7H291.895L285.805 57.415H284.545ZM299.438 57.415L305.528 41.7H306.788L300.698 57.415H299.438ZM314.331 57.415L320.421 41.7H321.681L315.591 57.415H314.331ZM329.225 57.415L335.315 41.7H336.575L330.485 57.415H329.225ZM344.118 57.415L350.208 41.7H351.468L345.378 57.415H344.118ZM359.011 57.415L365.101 41.7H366.361L360.271 57.415H359.011ZM373.904 57.415L379.994 41.7H381.254L375.164 57.415H373.904ZM388.797 57.415L394.887 41.7H396.147L390.057 57.415H388.797ZM403.69 57.415L409.78 41.7H411.04L404.95 57.415H403.69ZM418.584 57.415L424.674 41.7H425.934L419.844 57.415H418.584ZM433.477 57.415L439.567 41.7H440.827L434.737 57.415H433.477ZM448.37 57.415L454.46 41.7H455.72L449.63 57.415H448.37ZM463.263 57.415L469.353 41.7H470.613L464.523 57.415H463.263ZM478.156 57.415L484.246 41.7H485.506L479.416 57.415H478.156ZM493.049 57.415L499.139 41.7H500.399L494.309 57.415H493.049ZM507.943 57.415L514.033 41.7H515.293L509.203 57.415H507.943ZM522.836 57.415L528.926 41.7H530.186L524.096 57.415H522.836ZM537.729 57.415L543.819 41.7H545.079L538.989 57.415H537.729ZM552.622 57.415L558.712 41.7H559.972L553.882 57.415H552.622ZM567.515 57.415L573.605 41.7H574.865L568.775 57.415H567.515Z" fill="white"/>
</g>
<defs>
<clipPath id="clip0_174_2553">
<rect width="1440" height="24" fill="white"/>
</clipPath>
<clipPath id="clip1_174_2553">
<rect width="1440" height="24" fill="white" transform="translate(0 24)"/>
</clipPath>
</defs>
</svg>
