<svg width="96" height="96" viewBox="0 0 96 96" fill="none" xmlns="http://www.w3.org/2000/svg">
<path d="M46.1053 20.2105V0H49.8947V20.2105H46.1053Z" fill="#CBE720"/>
<path d="M43.4258 46.1053L30.5829 33.2623L33.2624 30.5828L46.1053 43.4256V25.2632H49.8947V43.4256L62.7376 30.5828L65.4171 33.2623L52.5742 46.1053H70.7368V49.8947H52.5744L65.4172 62.7375L62.7376 65.4171L49.8947 52.5742V70.7368H46.1053V52.5742L33.2624 65.4171L30.5828 62.7375L43.4256 49.8947H25.2632V46.1053H43.4258Z" fill="#CBE720"/>
<path d="M0 46.1053H20.2105V49.8947H0V46.1053Z" fill="#CBE720"/>
<path d="M75.7895 46.1053H96V49.8947H75.7895V46.1053Z" fill="#CBE720"/>
<path d="M46.1053 75.7895V96H49.8947V75.7895H46.1053Z" fill="#CBE720"/>
<path d="M27.0101 66.3103L12.7191 80.6013L15.3986 83.2808L29.6896 68.9898L27.0101 66.3103Z" fill="#CBE720"/>
<path d="M66.3103 27.01L80.6013 12.719L83.2809 15.3986L68.9899 29.6896L66.3103 27.01Z" fill="#CBE720"/>
<path d="M68.9899 66.3103L83.2809 80.6013L80.6014 83.2808L66.3104 68.9898L68.9899 66.3103Z" fill="#CBE720"/>
<path d="M29.6897 27.01L15.3987 12.719L12.7191 15.3986L27.0101 29.6896L29.6897 27.01Z" fill="#CBE720"/>
</svg>
