<svg width="74" height="98" viewBox="0 0 74 98" fill="none" xmlns="http://www.w3.org/2000/svg">
<path fill-rule="evenodd" clip-rule="evenodd" d="M37 0L74 66.3871H65.1905L74 82.1935H65.1905L74 98H0L8.80953 82.1935H0L8.80953 66.3871H0L37 0ZM10.5717 66.3871L2.61554 80.6623H9.66295L17.6191 66.3871H10.5717ZM18.4725 64.8558H11.4251L37 18.9681L62.5749 64.8558H55.5275L37 31.6129L18.4725 64.8558ZM19.3812 66.3871L11.4251 80.6623H62.5749L54.6188 66.3871H19.3812ZM53.7654 64.8558H20.2346L37 34.7746L53.7654 64.8558ZM56.3809 66.3871L64.337 80.6623H71.3845L63.4283 66.3871H56.3809ZM64.337 64.8558L37 15.8065L9.66295 64.8558H2.61554L37 3.16168L71.3845 64.8558H64.337ZM2.61554 96.4687L10.5717 82.1935H63.4283L71.3845 96.4687H2.61554Z" fill="#CBE720"/>
</svg>
