<svg width="105" height="94" viewBox="0 0 105 94" fill="none" xmlns="http://www.w3.org/2000/svg">
<path fill-rule="evenodd" clip-rule="evenodd" d="M77.5 0.554786L25.0679 1.15024L0.00519718 44.56L24.0211 93.1314L77.9123 93.3714L104.638 47.0804L77.5 0.554786ZM89.2687 70.4203L102.273 47.8965L81.4875 47.804L68.3222 70.6068L89.2687 70.4203ZM88.3166 72.0694L76.9676 91.7265L56.1822 91.634L67.3701 72.256L88.3166 72.0694ZM65.4659 72.2729L54.2926 91.6256L25.949 91.4993L36.9025 72.5273L65.4659 72.2729ZM35.486 71.6995L24.5877 90.5758L11.9155 64.9466L22.1529 47.2148L35.486 71.6995ZM23.1143 45.5497L36.4474 70.0343L49.8377 46.8416L36.3555 22.865L36.2099 22.8674L23.1143 45.5497ZM21.2334 45.5262L11.0415 63.179L1.86505 44.6199L11.5784 27.7959L21.2334 45.5262ZM12.5398 26.1308L22.1947 43.8611L35.2535 21.2426L35.4415 21.2395L25.5351 3.62212L12.5398 26.1308ZM37.8546 70.8781L66.418 70.6238L79.5979 47.7955L51.2542 47.6693L37.8546 70.8781ZM79.347 46.1538L51.2629 46.0287L38.2201 22.8336L65.4768 22.3751L79.347 46.1538ZM64.529 20.7501L37.3061 21.2081L26.9381 2.76974L53.8626 2.46397L64.529 20.7501ZM55.7495 2.44254L66.4099 20.7185L87.1586 20.3695L76.5639 2.20615L55.7495 2.44254ZM88.1064 21.9944L67.3577 22.3434L81.2513 46.1623L102.258 46.2558L88.1064 21.9944Z" fill="#CBE720"/>
</svg>
